<svg width="112" height="26" viewBox="0 0 112 26" fill="none" xmlns="http://www.w3.org/2000/svg">
<g clip-path="url(#clip0_65789_7245)">
<path d="M22.58 8.34998L12.475 2.89698C12.178 2.73698 11.821 2.73698 11.525 2.89698L1.42502 8.34998C0.939018 8.61398 0.758018 9.21998 1.02002 9.70598C1.20002 10.041 1.54502 10.231 1.90002 10.231C2.06002 10.231 2.22402 10.193 2.37502 10.111L3.10902 9.71498L4.69902 20.965C4.91502 22.179 6.00902 23.027 7.35902 23.027H16.641C17.991 23.027 19.085 22.179 19.303 20.939L20.891 9.71398L21.628 10.112C22.113 10.375 22.72 10.194 22.982 9.70798C23.245 9.22198 23.062 8.61498 22.578 8.35298L22.58 8.34998ZM12 16.435C10.205 16.435 8.75002 14.98 8.75002 13.185C8.75002 11.39 10.205 9.93498 12 9.93498C13.795 9.93498 15.25 11.39 15.25 13.185C15.25 14.98 13.795 16.435 12 16.435Z" fill="#FF6600"/>
<path d="M40.396 14.862C41.872 14.538 44.068 13.944 46.174 13.368L46.462 15.312C44.554 15.888 42.484 16.482 40.864 16.932L40.396 14.862ZM40.594 9.048H46.48V11.028H40.594V9.048ZM42.61 5.736H44.698V20.154C44.698 21.198 44.518 21.774 43.942 22.116C43.366 22.476 42.574 22.548 41.386 22.548C41.35 21.972 41.08 21.054 40.81 20.442C41.44 20.478 42.088 20.478 42.304 20.46C42.52 20.46 42.61 20.406 42.61 20.154V5.736ZM48.37 12.414H56.776V14.304H48.37V12.414ZM48.406 15.942H56.74V17.832H48.406V15.942ZM48.514 19.542H57.388V21.522H48.514V19.542ZM49.036 5.826L51.07 6.366C50.044 9.372 48.388 12.432 46.642 14.34C46.318 13.944 45.562 13.116 45.112 12.738C46.75 11.118 48.208 8.49 49.036 5.826ZM49.846 8.832H56.992V10.794H49.846V22.638H47.776V10.524L49.432 8.832H49.846ZM52.078 9.858H54.094V20.604H52.078V9.858ZM51.538 6.6L53.41 5.862C53.896 6.636 54.4 7.662 54.616 8.364L52.672 9.21C52.492 8.508 52.006 7.41 51.538 6.6ZM70.438 9.75L72.688 10.362C70.51 16.968 66.37 20.658 59.764 22.602C59.53 22.08 58.864 21.072 58.45 20.568C64.822 18.984 68.638 15.744 70.438 9.75ZM63.49 9.876C65.344 15.168 69.304 19.002 75.622 20.46C75.118 20.928 74.488 21.882 74.146 22.476C67.54 20.712 63.742 16.608 61.474 10.506L63.49 9.876ZM58.792 8.742H75.28V10.866H58.792V8.742ZM65.416 6.204L67.72 5.52C68.188 6.366 68.746 7.518 68.944 8.274L66.496 9.03C66.334 8.292 65.866 7.104 65.416 6.204ZM81.364 6.654H93.082V8.202H81.364V6.654ZM81.868 8.976H92.614V10.434H81.868V8.976ZM80.824 11.262H93.46V12.81H80.824V11.262ZM83.974 15.996H90.58V17.382H83.974V15.996ZM89.86 13.566H92.074V20.514C92.074 21.504 91.858 21.99 91.192 22.296C90.508 22.584 89.554 22.584 88.294 22.584C88.204 22.044 87.916 21.27 87.664 20.748C88.366 20.784 89.284 20.784 89.518 20.784C89.77 20.766 89.86 20.694 89.86 20.478V13.566ZM86.08 5.718H88.24V12.522H86.08V5.718ZM83.956 18.318H90.544V19.74H83.956V18.318ZM82.39 13.566H84.532V16.824C84.532 18.66 84.262 21.126 82.912 22.656C82.588 22.224 81.706 21.396 81.256 21.126C82.3 19.884 82.39 18.174 82.39 16.788V13.566ZM83.578 13.566H90.634V15.06H83.578V13.566ZM77.296 7.5L78.538 6.006C79.402 6.6 80.68 7.464 81.292 8.004L79.996 9.714C79.402 9.12 78.16 8.166 77.296 7.5ZM76.342 12.486L77.404 10.83C78.34 11.334 79.78 12.108 80.482 12.594L79.384 14.448C78.718 13.926 77.296 13.062 76.342 12.486ZM76.774 21.126C77.62 19.74 78.808 17.454 79.708 15.366L81.238 16.554C80.446 18.462 79.42 20.586 78.502 22.314L76.774 21.126ZM101.794 11.73H104.044V22.62H101.794V11.73ZM98.77 14.916V15.888H107.284V14.916H98.77ZM98.77 12.414V13.368H107.284V12.414H98.77ZM96.646 10.758H109.498V17.544H96.646V10.758ZM94.954 18.48H111.082V20.334H94.954V18.48ZM97.924 7.716V8.76H100.462V7.716H97.924ZM95.998 6.42H102.478V10.038H95.998V6.42ZM105.466 7.716V8.76H108.058V7.716H105.466ZM103.558 6.42H110.074V10.038H103.558V6.42Z" fill="#FF6600"/>
</g>
<defs>
<clipPath id="clip0_65789_7245">
<rect width="112" height="26" fill="white"/>
</clipPath>
</defs>
</svg>
