<svg width="16" height="16" viewBox="0 0 16 16" fill="none" xmlns="http://www.w3.org/2000/svg">
<path d="M9.36401 1.4947L6.59867 1.48804H6.59734C3.68134 1.48804 1.39734 3.7727 1.39734 6.68937C1.39734 9.42137 3.52134 11.4934 6.37401 11.6027V14.1547C6.37401 14.2267 6.40334 14.3454 6.45401 14.4234C6.54867 14.5734 6.71001 14.6547 6.87534 14.6547C6.96734 14.6547 7.06001 14.6294 7.14334 14.576C7.31934 14.464 11.4587 11.816 12.5353 10.9054C13.8033 9.83204 14.562 8.2587 14.564 6.69737V6.68604C14.56 3.7747 12.2773 1.4947 9.36401 1.49404V1.4947ZM11.8887 10.1427C11.1327 10.7827 8.64734 12.4127 7.37401 13.238V11.1134C7.37401 10.8374 7.15067 10.6134 6.87401 10.6134H6.61001C4.17001 10.6134 2.39801 8.9627 2.39801 6.68937C2.39801 4.33337 4.24334 2.48804 6.59801 2.48804L9.36267 2.4947H9.36401C11.7187 2.4947 13.564 4.3387 13.5653 6.69204C13.5633 7.96537 12.9373 9.2547 11.8893 10.1427H11.8887Z" fill="#6C757D"/>
</svg>
