<svg width="96" height="40" viewBox="0 0 96 40" fill="none" xmlns="http://www.w3.org/2000/svg">
<rect width="96" height="40" rx="20" fill="#FF6600"/>
<path d="M17.424 14.744H30.672V15.912H17.424V14.744ZM24.352 20.184H30.032V21.368H24.352V20.184ZM16.816 26.408H31.2V27.576H16.816V26.408ZM23.776 15.176H25.024V26.984H23.776V15.176ZM19.008 18.856H20.24V27.032H19.008V18.856ZM32.992 16.04H47.008V17.208H32.992V16.04ZM37.952 21.112H46.384V22.232H37.952V21.112ZM37.328 26.776H47.008V27.912H37.328V26.776ZM41.568 18.024H42.768V27.384H41.568V18.024ZM38.256 13.56L39.488 13.864C38.368 17.528 36.416 21.256 33.232 23.544C33.104 23.224 32.8 22.712 32.608 22.44C35.488 20.408 37.36 16.856 38.256 13.56ZM35.088 20.152H36.288V28.232H35.088V20.152ZM50.416 15.304V18.12H53.504V15.304H50.416ZM49.36 14.264H54.608V19.144H49.36V14.264ZM51.648 18.68H52.72V25.992H51.648V18.68ZM49.376 20.68H50.384V26.472H49.376V20.68ZM48.544 26.408C50.096 26.072 52.464 25.464 54.752 24.872L54.88 25.928C52.736 26.504 50.48 27.112 48.832 27.56L48.544 26.408ZM52.016 21.384H54.688V22.456H52.016V21.384ZM56.032 14.28H62.352V21.32H56.032V20.264H61.248V15.336H56.032V14.28ZM56.048 17.272H61.744V18.28H56.048V17.272ZM58.912 20.68C59.584 23.688 61.056 26.088 63.488 27.128C63.216 27.368 62.864 27.832 62.688 28.168C60.16 26.904 58.704 24.264 57.968 20.872L58.912 20.68ZM62.48 21.832L63.248 22.664C62.304 23.432 61.04 24.264 60.096 24.792L59.456 24.024C60.384 23.48 61.728 22.536 62.48 21.832ZM55.328 28.296L55.232 27.224L55.808 26.776L59.376 25.912C59.376 26.248 59.392 26.744 59.44 27C56.128 27.912 55.632 28.088 55.328 28.296ZM55.328 28.296C55.232 28.024 54.96 27.544 54.784 27.304C55.04 27.16 55.376 26.824 55.376 26.168V14.28H56.528V27.128C56.528 27.128 55.328 27.864 55.328 28.296ZM72.016 14.68H79.248V15.544H72.016V14.68ZM74.336 16.472H78.672V17.24H74.336V16.472ZM73.136 18.488H79.136V19.256H73.136V18.488ZM75.696 17.048H76.752V18.888H75.696V17.048ZM74.64 13.528L75.584 13.688C75.056 15.8 74.048 17.576 72.64 18.712C72.512 18.536 72.176 18.152 71.968 17.976C73.28 16.984 74.192 15.4 74.64 13.528ZM77.488 20.008H78.432V25.368C78.432 25.832 78.336 26.072 78 26.216C77.664 26.36 77.12 26.36 76.256 26.36C76.208 26.12 76.08 25.8 75.968 25.56C76.56 25.576 77.104 25.576 77.28 25.576C77.44 25.576 77.488 25.528 77.488 25.368V20.008ZM73.696 20.008H77.936V20.776H73.696V20.008ZM73.264 20.008H74.192V22.312C74.192 23.544 74.032 25.192 73.168 26.312C73.008 26.152 72.592 25.88 72.384 25.784C73.168 24.744 73.264 23.368 73.264 22.28V20.008ZM74.16 23.944C75.12 23.72 76.448 23.352 77.824 22.984L77.92 23.704C76.704 24.136 75.552 24.536 74.544 24.856L74.16 23.944ZM74.528 21.752L74.992 21.128C75.76 21.48 76.656 21.928 77.12 22.28L76.656 23.016C76.176 22.648 75.264 22.088 74.528 21.752ZM65.232 14.216H68.768V15.304H66.224V28.248H65.232V14.216ZM68.416 14.216H68.592L68.768 14.168L69.456 14.584C69.04 15.88 68.496 17.464 68 18.776C69.072 20.136 69.312 21.288 69.312 22.296C69.312 23.128 69.152 23.8 68.736 24.12C68.528 24.28 68.288 24.376 67.984 24.392C67.68 24.424 67.328 24.44 66.992 24.424C66.976 24.152 66.896 23.752 66.736 23.464C67.072 23.512 67.36 23.512 67.584 23.496C67.76 23.48 67.92 23.432 68.064 23.352C68.272 23.16 68.368 22.696 68.352 22.2C68.352 21.304 68.112 20.2 67.04 18.888C67.584 17.416 68.112 15.592 68.416 14.504V14.216ZM69.568 14.104L70.48 13.816C70.96 14.6 71.488 15.624 71.744 16.28L70.8 16.648C70.56 15.96 70 14.888 69.568 14.104ZM69.296 17.256H71.52V18.296H69.296V17.256ZM71.28 24.536C72.096 26.68 73.696 27.08 76.048 27.08C77.072 27.08 78.496 27.032 79.504 26.92C79.344 27.176 79.2 27.688 79.168 28.008C78.256 28.072 77.056 28.088 76.016 28.088C73.184 28.088 71.52 27.544 70.512 24.872L71.28 24.536ZM71.184 21.16H71.552L71.744 21.128L72.192 21.32C71.744 24.76 70.576 27.064 68.976 28.312C68.816 28.072 68.48 27.688 68.256 27.512C69.776 26.408 70.8 24.312 71.184 21.352V21.16ZM69.696 22.408V21.432L70.272 21.16H71.648V22.168H70.544C70.224 22.168 69.824 22.28 69.696 22.408ZM69.696 22.408C69.632 22.136 69.408 21.64 69.28 21.4C69.504 21.336 69.728 21.256 69.888 20.936C70.144 20.52 70.96 18.152 71.232 17.336V17.288L71.536 17.144L72.272 17.368C71.856 18.408 71.056 20.68 70.512 21.672C70.512 21.672 69.696 22.104 69.696 22.408Z" fill="white"/>
</svg>
