<svg width="76" height="26" viewBox="0 0 76 26" fill="none" xmlns="http://www.w3.org/2000/svg">
<g clip-path="url(#clip0_66277_518)">
<path d="M22.58 8.35001L12.475 2.89701C12.178 2.73701 11.821 2.73701 11.525 2.89701L1.42499 8.35001C0.938988 8.61401 0.757988 9.22001 1.01999 9.70601C1.19999 10.041 1.54499 10.231 1.89999 10.231C2.05999 10.231 2.22399 10.193 2.37499 10.111L3.10899 9.71501L4.69899 20.965C4.91499 22.179 6.00899 23.027 7.35899 23.027H16.641C17.991 23.027 19.085 22.179 19.303 20.939L20.891 9.71401L21.628 10.112C22.113 10.375 22.72 10.194 22.982 9.70801C23.245 9.22201 23.062 8.61501 22.578 8.35301L22.58 8.35001ZM12 16.435C10.205 16.435 8.74999 14.98 8.74999 13.185C8.74999 11.39 10.205 9.93501 12 9.93501C13.795 9.93501 15.25 11.39 15.25 13.185C15.25 14.98 13.795 16.435 12 16.435Z" fill="#FF6600"/>
<path d="M44.374 14.214V15.87H53.59V14.214H44.374ZM44.374 17.04V18.678H53.59V17.04H44.374ZM44.374 19.902V21.774H53.608V19.902H44.374ZM40.864 8.13V10.128H57.19V8.13H40.864ZM42.628 11.244V22.62H44.788V13.116H53.014V22.62H55.264V11.244H42.628ZM47.884 9.318C47.74 10.164 47.434 11.316 47.11 12.144L49.216 12.396C49.63 11.622 50.206 10.542 50.62 9.39L47.884 9.318ZM52.096 5.664C51.736 6.492 51.106 7.608 50.548 8.364L52.474 8.904C53.086 8.238 53.878 7.248 54.58 6.204L52.096 5.664ZM43.672 6.438C44.32 7.14 45.058 8.13 45.364 8.76L47.38 7.716C47.002 7.104 46.282 6.222 45.598 5.592L43.672 6.438ZM63.184 13.782H70.87V14.772H63.184V13.782ZM63.184 16.32H70.87V17.328H63.184V16.32ZM63.184 11.244H70.87V12.234H63.184V11.244ZM60.916 9.606V18.966H73.228V9.606H60.916ZM67.864 20.28C69.862 20.964 71.932 21.954 73.12 22.62L75.28 21.18C73.894 20.514 71.536 19.56 69.484 18.876L67.864 20.28ZM59.386 6.546V8.508H74.488V6.546H59.386ZM65.83 7.5C65.776 8.346 65.56 9.516 65.362 10.344L67.45 10.686C67.738 9.948 68.116 8.886 68.458 7.77L65.83 7.5ZM64.264 18.75C63.022 19.524 60.592 20.46 58.684 20.946C59.188 21.396 59.818 22.134 60.178 22.602C62.068 22.08 64.516 21.126 66.136 20.226L64.264 18.75Z" fill="#FF6600"/>
</g>
<defs>
<clipPath id="clip0_66277_518">
<rect width="76" height="26" fill="white"/>
</clipPath>
</defs>
</svg>

