<svg width="76" height="26" viewBox="0 0 76 26" fill="none" xmlns="http://www.w3.org/2000/svg">
<g clip-path="url(#clip0_66277_529)">
<path d="M22.46 8.56999L12.357 3.11499C12.134 2.99499 11.867 2.99499 11.644 3.11499L1.54299 8.56999C1.17899 8.76699 1.04299 9.22199 1.23999 9.58699C1.37499 9.83699 1.63399 9.97999 1.89999 9.97999C2.01999 9.97999 2.14299 9.94999 2.25599 9.88999L3.07099 9.44999L4.69999 20.963C4.91399 22.178 6.00799 23.025 7.35799 23.025H16.64C17.992 23.025 19.085 22.177 19.303 20.938L20.929 9.44799L21.747 9.88999C22.111 10.083 22.567 9.94999 22.764 9.58599C22.96 9.22299 22.824 8.76799 22.46 8.56999ZM17.822 20.703C17.715 21.309 17.119 21.525 16.642 21.525H7.35999C6.87999 21.525 6.28499 21.309 6.18199 20.727L4.47999 8.68999L12 4.62799L19.522 8.68799L17.822 20.703Z" fill="#44444F"/>
<path d="M8.22 13.184C8.22 15.268 9.915 16.964 12 16.964C14.085 16.964 15.78 15.268 15.78 13.184C15.78 11.1 14.085 9.40399 12 9.40399C9.915 9.40399 8.22 11.1 8.22 13.184ZM14.28 13.184C14.28 14.442 13.258 15.464 12 15.464C10.742 15.464 9.72 14.442 9.72 13.184C9.72 11.926 10.742 10.904 12 10.904C13.258 10.904 14.28 11.926 14.28 13.184Z" fill="#44444F"/>
<path d="M44.374 14.214V15.87H53.59V14.214H44.374ZM44.374 17.04V18.678H53.59V17.04H44.374ZM44.374 19.902V21.774H53.608V19.902H44.374ZM40.864 8.13V10.128H57.19V8.13H40.864ZM42.628 11.244V22.62H44.788V13.116H53.014V22.62H55.264V11.244H42.628ZM47.884 9.318C47.74 10.164 47.434 11.316 47.11 12.144L49.216 12.396C49.63 11.622 50.206 10.542 50.62 9.39L47.884 9.318ZM52.096 5.664C51.736 6.492 51.106 7.608 50.548 8.364L52.474 8.904C53.086 8.238 53.878 7.248 54.58 6.204L52.096 5.664ZM43.672 6.438C44.32 7.14 45.058 8.13 45.364 8.76L47.38 7.716C47.002 7.104 46.282 6.222 45.598 5.592L43.672 6.438ZM63.184 13.782H70.87V14.772H63.184V13.782ZM63.184 16.32H70.87V17.328H63.184V16.32ZM63.184 11.244H70.87V12.234H63.184V11.244ZM60.916 9.606V18.966H73.228V9.606H60.916ZM67.864 20.28C69.862 20.964 71.932 21.954 73.12 22.62L75.28 21.18C73.894 20.514 71.536 19.56 69.484 18.876L67.864 20.28ZM59.386 6.546V8.508H74.488V6.546H59.386ZM65.83 7.5C65.776 8.346 65.56 9.516 65.362 10.344L67.45 10.686C67.738 9.948 68.116 8.886 68.458 7.77L65.83 7.5ZM64.264 18.75C63.022 19.524 60.592 20.46 58.684 20.946C59.188 21.396 59.818 22.134 60.178 22.602C62.068 22.08 64.516 21.126 66.136 20.226L64.264 18.75Z" fill="#44444F"/>
</g>
<defs>
<clipPath id="clip0_66277_529">
<rect width="76" height="26" fill="white"/>
</clipPath>
</defs>
</svg>
