<svg width="76" height="26" viewBox="0 0 76 26" fill="none" xmlns="http://www.w3.org/2000/svg">
  <g clip-path="url(#clip0_66277_506)">
    <path fill-rule="evenodd" clip-rule="evenodd"
      d="M12.36 23.375H11.638C10.455 23.375 9.48399 22.487 9.37599 21.311L9.36199 21.164C9.33699 20.877 9.15499 20.631 8.88999 20.52C8.60399 20.4 8.30799 20.455 8.09199 20.635L7.97599 20.732C7.10799 21.457 5.72299 21.395 4.91599 20.592L4.40599 20.082C3.56999 19.242 3.50999 17.928 4.26599 17.022L4.36399 16.904C4.54999 16.682 4.59399 16.381 4.48599 16.117C4.37599 15.845 4.12799 15.663 3.83999 15.637L3.68999 15.623C2.50999 15.516 1.62299 14.543 1.62299 13.361V12.639C1.62299 11.456 2.51099 10.485 3.68699 10.377L3.84299 10.363C4.12799 10.338 4.37299 10.156 4.48499 9.89C4.59499 9.62 4.54999 9.317 4.36499 9.095L4.27099 8.979C3.51399 8.071 3.57299 6.756 4.40799 5.919L4.91999 5.407C5.72399 4.603 7.10799 4.542 7.97999 5.267L8.09599 5.365C8.31399 5.549 8.62399 5.595 8.88599 5.487C9.15599 5.375 9.33799 5.129 9.36299 4.844L9.37699 4.691C9.48399 3.511 10.457 2.625 11.639 2.625H12.361C13.544 2.625 14.515 3.513 14.623 4.689L14.637 4.845C14.662 5.13 14.843 5.375 15.109 5.485C15.386 5.602 15.689 5.547 15.903 5.368L16.023 5.266C16.89 4.543 18.277 4.604 19.083 5.406L19.593 5.918C20.429 6.756 20.489 8.071 19.733 8.978L19.633 9.096C19.445 9.316 19.399 9.618 19.51 9.884C19.622 10.154 19.87 10.334 20.156 10.362L20.308 10.376C21.488 10.483 22.375 11.456 22.375 12.638V13.361C22.375 14.544 21.487 15.515 20.311 15.623L20.156 15.637C19.872 15.661 19.626 15.842 19.516 16.107C19.403 16.379 19.449 16.681 19.633 16.902L19.733 17.022C20.489 17.927 20.429 19.242 19.593 20.082L19.083 20.592C18.276 21.396 16.893 21.456 16.023 20.732L15.908 20.636C15.691 20.453 15.378 20.406 15.118 20.514C14.845 20.628 14.663 20.874 14.638 21.16L14.624 21.31C14.517 22.483 13.544 23.37 12.362 23.37L12.36 23.375ZM8.2099 13C8.2099 10.91 9.9099 9.20996 11.9999 9.20996C14.0899 9.20996 15.7899 10.91 15.7899 13C15.7899 15.09 14.0899 16.79 11.9999 16.79C9.9099 16.79 8.2099 15.09 8.2099 13ZM9.7099 13C9.7099 14.264 10.7379 15.29 11.9999 15.29C13.2619 15.29 14.2899 14.264 14.2899 13C14.2899 11.736 13.2599 10.71 11.9999 10.71C10.7399 10.71 9.7099 11.736 9.7099 13Z"
      fill="#FF6600" />
    <path
      d="M41.44 11.208V12.846H46.984V11.208H41.44ZM41.44 13.656V15.276H47.02V13.656H41.44ZM40.684 8.706V10.416H47.74V8.706H40.684ZM42.412 16.14V17.868H45.13V19.884H42.412V21.612H47.002V16.14H42.412ZM41.458 16.14V22.386H43.294V16.14H41.458ZM42.502 6.438C42.952 7.212 43.51 8.31 43.762 8.994L45.508 8.04C45.22 7.374 44.662 6.384 44.176 5.628L42.502 6.438ZM49.36 6.294V8.292H54.166V6.294H49.36ZM47.434 13.53V15.546H55.354V13.53H47.434ZM54.598 13.53V13.854C53.59 17.598 50.62 19.83 46.768 20.658C47.146 21.126 47.614 22.026 47.83 22.584C52.15 21.396 55.39 18.93 56.704 14.016L55.354 13.458L54.994 13.53H54.598ZM49.792 15.33L47.938 15.96C49.63 19.344 52.312 21.576 56.236 22.548C56.506 21.954 57.1 21.036 57.568 20.568C53.86 19.848 51.124 17.976 49.792 15.33ZM48.964 6.294V8.238C48.964 9.444 48.748 10.758 46.768 11.73C47.146 12.036 47.902 12.882 48.154 13.314C50.44 12.09 50.944 10.074 50.944 8.31V6.294H48.964ZM53.086 6.294V10.218C53.086 12.018 53.428 12.774 55.12 12.774C55.372 12.774 55.822 12.774 56.056 12.774C56.434 12.774 56.83 12.756 57.082 12.63C56.992 12.144 56.956 11.388 56.938 10.848C56.704 10.92 56.29 10.974 56.056 10.974C55.894 10.974 55.48 10.974 55.318 10.974C55.102 10.974 55.084 10.758 55.084 10.236V6.294H53.086ZM62.014 11.244V13.314H71.968V11.244H62.014ZM66.982 15.474V17.49H73.066V15.474H66.982ZM65.848 12.342V20.766L68.116 21.036V12.342H65.848ZM61.618 14.16C61.312 17.256 60.412 19.758 58.45 21.198C58.954 21.522 59.854 22.26 60.196 22.656C62.266 20.874 63.346 18.048 63.814 14.376L61.618 14.16ZM63.364 16.374L61.6 16.968C63.148 21.522 65.956 22.35 70.114 22.35H74.632C74.74 21.702 75.1 20.676 75.406 20.154C74.2 20.208 71.194 20.208 70.24 20.208C67.036 20.19 64.516 19.686 63.364 16.374ZM59.26 7.626V12.144H61.384V9.66H72.508V12.144H74.74V7.626H59.26ZM65.344 6.132C65.758 6.942 66.136 8.022 66.28 8.67L68.566 7.986C68.386 7.302 67.936 6.294 67.504 5.52L65.344 6.132Z"
      fill="#FF6600" />
  </g>
  <defs>
    <clipPath id="clip0_66277_506">
      <rect width="76" height="26" fill="white" />
    </clipPath>
  </defs>
</svg>