<svg width="112" height="26" viewBox="0 0 112 26" fill="none" xmlns="http://www.w3.org/2000/svg">
  <g clip-path="url(#clip0_66277_513)">
    <path
      d="M12.225 13.165C10.869 13.165 9.35301 13.015 8.38501 11.909C7.57101 10.979 7.30801 9.541 7.58001 7.517C7.96001 4.691 9.69601 3.004 12.226 3.004C14.756 3.004 16.493 4.691 16.872 7.517C17.144 9.541 16.88 10.977 16.066 11.909C15.096 13.015 13.581 13.164 12.226 13.164L12.225 13.165ZM18.074 23.015H6.37601C5.71301 23.015 5.12601 22.735 4.72601 22.229C4.30401 21.695 4.15001 20.959 4.31601 20.261C5.15001 16.731 8.40201 14.264 12.224 14.264C16.046 14.264 19.298 16.73 20.134 20.261C20.298 20.959 20.144 21.695 19.722 22.228C19.322 22.733 18.737 23.013 18.074 23.013V23.015Z"
      fill="#FF6600" />
    <path
      d="M46.102 6.636V22.602H48.064V8.508H54.868V22.458H56.92V6.636H46.102ZM48.532 10.722V12.288H54.454V10.722H48.532ZM47.11 19.668V21.558H55.858V19.668H47.11ZM50.602 8.886V14.664H52.276V8.886H50.602ZM50.548 15.348H52.384V17.22H50.548V15.348ZM49 13.854V18.714H54.022V13.854H49ZM43.87 5.772C43.06 8.346 41.674 10.938 40.162 12.594C40.504 13.152 41.044 14.412 41.206 14.934C43.078 12.81 44.806 9.48 45.85 6.366L43.87 5.772ZM42.394 10.704V22.638H44.446V8.688L44.428 8.67L42.394 10.704ZM65.578 5.736C65.488 8.814 65.83 16.896 58.504 20.838C59.206 21.324 59.908 22.008 60.304 22.584C67.828 18.156 67.936 9.462 68.044 5.736H65.578ZM67.846 7.932L65.758 8.166C66.028 9.966 66.622 18.966 74.002 22.476C74.326 21.864 74.938 21.126 75.586 20.622C68.566 17.49 67.99 9.39 67.846 7.932ZM81.166 15.51H88.996V16.284H81.166V15.51ZM81.166 17.508H88.996V18.3H81.166V17.508ZM81.166 13.53H88.996V14.286H81.166V13.53ZM79.078 12.234V19.578H91.174V12.234H79.078ZM86.422 20.46C88.204 21.126 90.058 22.008 91.102 22.602L93.028 21.45C91.804 20.838 89.698 19.974 87.844 19.326L86.422 20.46ZM82.012 19.398C80.788 20.1 78.646 20.73 76.738 21.072C77.224 21.45 77.962 22.242 78.34 22.656C80.176 22.152 82.516 21.252 83.992 20.298L82.012 19.398ZM84.1 6.816V8.382H91.39V6.816H84.1ZM84.244 5.61C83.848 6.834 83.092 8.04 82.138 8.832C82.588 9.084 83.38 9.606 83.74 9.912C84.712 9.012 85.63 7.536 86.134 6.042L84.244 5.61ZM86.08 8.022V8.652C86.08 9.372 85.54 10.254 81.112 10.596C81.49 10.992 82.03 11.73 82.228 12.216C87.322 11.64 88.042 10.056 88.042 8.742V8.022H86.08ZM87.862 8.742L86.35 9.048C87.43 10.866 89.392 11.856 92.2 12.198C92.434 11.658 92.956 10.884 93.37 10.47C90.778 10.344 88.798 9.822 87.862 8.742ZM77.116 6.6V8.184H81.742V6.6H77.116ZM76.72 9.39V11.028H82.174V9.39H76.72ZM90.634 6.816V7.068C90.346 7.842 89.842 8.796 89.428 9.408L91.084 10.038C91.66 9.318 92.29 8.184 92.74 7.176L91.264 6.726L90.958 6.816H90.634ZM97.402 5.718V22.62H99.4V5.718H97.402ZM94.684 11.712V13.728H102.064V11.712H94.684ZM94.648 7.212C95.08 8.526 95.44 10.29 95.476 11.406L97.096 11.01C97.024 9.858 96.646 8.148 96.16 6.834L94.648 7.212ZM100.588 6.744C100.39 8.004 99.958 9.822 99.58 10.956L100.948 11.334C101.398 10.272 101.938 8.562 102.406 7.122L100.588 6.744ZM107.392 5.7V22.602H109.426V5.7H107.392ZM102.01 16.968L102.352 18.984L111.586 17.31L111.262 15.312L102.01 16.968ZM103.036 8.166C104.044 8.814 105.304 9.804 105.844 10.506L106.978 8.868C106.384 8.202 105.106 7.302 104.098 6.69L103.036 8.166ZM102.226 12.702C103.27 13.314 104.584 14.286 105.196 14.952L106.276 13.242C105.628 12.576 104.278 11.712 103.234 11.154L102.226 12.702ZM96.142 14.412C95.872 15.78 95.152 17.436 94.396 18.354C94.738 19.074 95.188 20.172 95.368 20.928C96.52 19.632 97.276 17.04 97.654 14.934L96.142 14.412ZM100.066 14.466L98.896 15.312C99.382 16.266 100.246 18.282 100.588 19.398L102.082 17.76C101.794 17.22 100.444 14.97 100.066 14.466Z"
      fill="#FF6600" />
  </g>
  <defs>
    <clipPath id="clip0_66277_513">
      <rect width="112" height="26" fill="white" />
    </clipPath>
  </defs>
</svg>