<svg width="16" height="16" viewBox="0 0 16 16" fill="none" xmlns="http://www.w3.org/2000/svg">
<path d="M9.41387 8L15.2069 2.207C15.5969 1.817 15.5969 1.184 15.2069 0.792997C14.8169 0.401997 14.1839 0.402997 13.7929 0.792997L7.99988 6.586L2.20687 0.792997C1.81687 0.402997 1.18388 0.402997 0.792875 0.792997C0.401875 1.183 0.402875 1.816 0.792875 2.207L6.58588 8L0.792875 13.793C0.402875 14.183 0.402875 14.816 0.792875 15.207C0.987875 15.402 1.24287 15.5 1.49987 15.5C1.75687 15.5 2.01187 15.402 2.20687 15.207L7.99988 9.414L13.7929 15.207C13.9879 15.402 14.2429 15.5 14.4999 15.5C14.7569 15.5 15.0119 15.402 15.2069 15.207C15.5969 14.817 15.5969 14.184 15.2069 13.793L9.41387 8Z" fill="white"/>
</svg>
