<svg width="130" height="26" viewBox="0 0 130 26" fill="none" xmlns="http://www.w3.org/2000/svg">
<g clip-path="url(#clip0_65870_7741)">
<path d="M12.225 13.165C10.869 13.165 9.35301 13.015 8.38501 11.909C7.57101 10.979 7.30801 9.541 7.58001 7.517C7.96001 4.691 9.69601 3.004 12.226 3.004C14.756 3.004 16.493 4.691 16.872 7.517C17.144 9.541 16.88 10.977 16.066 11.909C15.096 13.015 13.581 13.164 12.226 13.164L12.225 13.165ZM18.074 23.015H6.37601C5.71301 23.015 5.12601 22.735 4.72601 22.229C4.30401 21.695 4.15001 20.959 4.31601 20.261C5.15001 16.731 8.40201 14.264 12.224 14.264C16.046 14.264 19.298 16.73 20.134 20.261C20.298 20.959 20.144 21.695 19.722 22.228C19.322 22.733 18.737 23.013 18.074 23.013V23.015Z" fill="#FF6600"/>
<path d="M45.958 7.482H57.442V9.444H45.958V7.482ZM48.316 12.468V14.25H54.886V12.468H48.316ZM46.354 10.704H56.956V16.014H46.354V10.704ZM48.046 16.194C49.648 18.786 53.05 20.244 57.712 20.676C57.262 21.144 56.722 22.008 56.452 22.602C51.574 21.936 48.244 20.118 46.282 16.734L48.046 16.194ZM50.512 5.826H52.636V14.052C52.636 17.724 51.718 21.072 46.552 22.62C46.3 22.134 45.67 21.27 45.202 20.82C50.044 19.74 50.512 16.986 50.512 14.034V5.826ZM44.59 5.664L46.606 6.312C45.382 9.372 43.402 12.594 41.35 14.628C41.17 14.124 40.594 12.936 40.234 12.414C41.944 10.794 43.618 8.238 44.59 5.664ZM42.844 10.686L44.878 8.634L44.896 8.652V22.656H42.844V10.686ZM61.78 6.924H72.832V8.976H61.78V6.924ZM61.78 11.064H72.868V13.08H61.78V11.064ZM61.744 15.312H72.94V17.346H61.744V15.312ZM60.538 6.924H62.68V13.404C62.68 16.266 62.32 20.316 60.106 22.728C59.764 22.314 58.882 21.594 58.414 21.324C60.376 19.146 60.538 15.924 60.538 13.386V6.924ZM72.076 6.924H74.218V20.082C74.218 21.234 73.966 21.81 73.246 22.152C72.49 22.494 71.41 22.53 69.772 22.512C69.682 21.936 69.358 21 69.07 20.442C70.096 20.514 71.284 20.496 71.608 20.496C71.95 20.478 72.076 20.37 72.076 20.064V6.924ZM66.082 7.734H68.278V22.404H66.082V7.734ZM76.882 11.172H93.082V13.08H76.882V11.172ZM78.448 7.662H88.744V9.534H78.448V7.662ZM81.616 17.454H89.662V19.074H81.616V17.454ZM81.616 20.28H89.662V22.098H81.616V20.28ZM82.696 5.718H84.82V12.234H82.696V5.718ZM90.616 6.24L92.47 7.194C88.942 12.108 83.452 15.726 77.62 17.868C77.368 17.4 76.72 16.5 76.324 16.068C82.174 14.196 87.466 10.758 90.616 6.24ZM80.41 14.52H91.03V22.566H88.78V16.284H82.57V22.638H80.41V14.52ZM104.404 7.734H106.528V17.67H104.404V7.734ZM108.598 6.06H110.74V20.046C110.74 21.27 110.488 21.864 109.786 22.206C109.03 22.548 107.914 22.62 106.294 22.62C106.186 22.008 105.88 21.054 105.574 20.46C106.654 20.496 107.788 20.478 108.13 20.478C108.472 20.478 108.598 20.37 108.598 20.046V6.06ZM97.618 10.524H102.244V12.486H97.618V10.524ZM94.972 6.528H103.918V8.526H94.972V6.528ZM96.52 15.276L97.528 13.674C98.572 14.268 100.03 15.168 100.732 15.762L99.652 17.58C98.986 16.932 97.564 15.96 96.52 15.276ZM101.488 10.524H101.902L102.262 10.452L103.612 10.902C102.712 16.86 100.3 20.748 96.988 22.674C96.664 22.206 95.854 21.414 95.368 21.09C98.608 19.38 100.786 16.05 101.488 10.956V10.524ZM97.942 7.626L100.102 8.04C99.274 11.154 97.924 14.646 95.764 16.77C95.386 16.356 94.684 15.708 94.234 15.366C96.178 13.512 97.402 10.272 97.942 7.626ZM113.782 7.014H128.326V8.85H113.782V7.014ZM114.664 9.804H127.624V11.514H114.664V9.804ZM113.008 12.522H128.956V14.34H113.008V12.522ZM119.848 5.718H122.044V13.98H119.848V5.718ZM119.56 12.99L121.432 13.836C119.614 16.068 116.608 18.03 113.782 19.074C113.458 18.552 112.828 17.76 112.36 17.328C115.096 16.482 118.066 14.772 119.56 12.99ZM122.584 13.62C123.682 16.86 125.968 19.29 129.586 20.298C129.1 20.748 128.47 21.612 128.164 22.206C124.276 20.874 122.008 18.084 120.64 14.106L122.584 13.62ZM126.94 14.682L128.74 16.014C127.408 16.986 125.842 17.976 124.618 18.588L123.25 17.454C124.42 16.752 126.004 15.6 126.94 14.682ZM116.23 22.62L115.996 20.766L116.896 20.064L122.386 18.552C122.44 19.146 122.62 20.01 122.746 20.478C117.598 22.008 116.752 22.278 116.23 22.62ZM116.23 22.62C116.086 22.098 115.672 21.144 115.33 20.694C115.726 20.478 116.23 20.046 116.23 19.254V16.068H118.48V20.748C118.48 20.748 116.23 21.918 116.23 22.62Z" fill="#FF6600"/>
</g>
<defs>
<clipPath id="clip0_65870_7741">
<rect width="130" height="26" fill="white"/>
</clipPath>
</defs>
</svg>
