<svg width="128" height="40" viewBox="0 0 128 40" fill="none" xmlns="http://www.w3.org/2000/svg">
<rect x="0.5" y="0.5" width="127" height="39" rx="19.5" fill="white"/>
<path d="M20.448 19.864L21.296 19.56C21.76 20.552 22.24 21.848 22.384 22.632L21.488 23C21.328 22.184 20.912 20.872 20.448 19.864ZM18.912 23.976L19.776 23.8C19.968 24.856 20.144 26.2 20.192 27.112L19.28 27.336C19.248 26.408 19.088 25.032 18.912 23.976ZM17.232 23.864L18.192 24.024C18.016 25.416 17.712 26.92 17.392 27.912C17.184 27.8 16.72 27.64 16.48 27.576C16.848 26.6 17.088 25.16 17.232 23.864ZM16.864 19.56C16.8 19.336 16.64 18.808 16.512 18.52C16.768 18.456 17.04 18.12 17.376 17.64C17.712 17.16 18.8 15.32 19.424 13.576L20.448 14.024C19.632 15.8 18.592 17.672 17.568 18.952V18.968C17.568 18.968 16.864 19.32 16.864 19.56ZM16.864 19.544L16.848 18.696L17.376 18.36L20.112 18.136C20.064 18.424 20.016 18.824 20.016 19.048C17.536 19.32 17.12 19.416 16.864 19.544ZM16.976 23.16C16.912 22.936 16.736 22.408 16.624 22.12C16.944 22.056 17.296 21.64 17.76 21.032C18.272 20.44 19.872 18.136 20.896 15.944L21.84 16.504C20.656 18.712 19.152 20.968 17.68 22.568V22.6C17.68 22.6 16.976 22.936 16.976 23.16ZM16.976 23.16L16.928 22.328L17.488 21.96L21.712 21.368C21.68 21.64 21.68 22.04 21.696 22.264C17.776 22.872 17.28 23 16.976 23.16ZM20.624 23.656L21.44 23.368C21.728 24.184 22.064 25.224 22.208 25.896L21.344 26.232C21.232 25.528 20.912 24.472 20.624 23.656ZM22.752 14.712H23.856V19C23.856 21.592 23.696 25.576 22.624 28.264C22.432 28.088 21.92 27.816 21.664 27.72C22.688 25.128 22.752 21.48 22.752 19V14.712ZM26.016 21.592H26.768V28.072H26.016V21.592ZM27.888 21.592H28.64V27.992H27.888V21.592ZM23.36 16.52H30.384V20.04H23.36V19.08H29.312V17.48H23.36V16.52ZM23.984 21.128H30.192V22.152H24.912V28.296H23.984V21.128ZM29.76 21.128H30.736V27.176C30.736 27.624 30.656 27.848 30.384 28.024C30.096 28.168 29.744 28.168 29.184 28.168C29.168 27.928 29.04 27.56 28.928 27.32C29.248 27.336 29.536 27.336 29.648 27.32C29.728 27.32 29.76 27.288 29.76 27.176V21.128ZM24.48 23.96H30.112V24.952H24.48V23.96ZM29.424 13.592L30.352 14.408C28.448 15 25.552 15.384 23.072 15.592C23.04 15.352 22.88 14.952 22.752 14.712C25.136 14.488 27.92 14.072 29.424 13.592ZM45.344 18.744H46.464V28.28H45.344V18.744ZM41.552 14.984V16.6H45.344V14.984H41.552ZM40.416 14.072H46.528V17.512H40.416V14.072ZM39.488 18.44H47.392V19.432H39.488V18.44ZM41.04 20.824H45.904V21.736H41.04V20.824ZM41.04 23.144H45.904V24.056H41.04V23.144ZM40.496 18.696H41.616V25.832L40.496 25.944V18.696ZM32.784 15.304H39.408V16.376H32.784V15.304ZM32.624 24.424H39.6V25.496H32.624V24.424ZM35.584 13.576H36.672V17.944H35.584V13.576ZM35.68 18.008H36.56V22.664H36.672V28.312H35.584V22.664H35.68V18.008ZM34.144 20.76V22.232H38.176V20.76H34.144ZM34.144 18.456V19.896H38.176V18.456H34.144ZM33.216 17.56H39.12V23.128H33.216V17.56ZM39.184 25.448H47.344V26.536H39.184V25.448ZM53.456 14.536H62.816V28.152H61.664V15.608H54.576V28.28H53.456V14.536ZM55.232 17.928H61.12V18.872H55.232V17.928ZM54.064 26.248H62.304V27.32H54.064V26.248ZM57.664 16.12H58.64V21.192H57.664V16.12ZM56.832 21.528V24.008H59.536V21.528H56.832ZM55.904 20.632H60.496V24.92H55.904V20.632ZM51.792 13.64L52.896 13.96C51.984 16.696 50.496 19.448 48.896 21.288C48.8 21 48.464 20.344 48.256 20.056C49.696 18.488 51.008 16.072 51.792 13.64ZM50.464 17.56L51.584 16.424L51.6 16.44V28.312H50.464V17.56ZM71.312 13.624H72.64C72.576 16.456 72.448 24.584 65.648 28.232C65.44 27.912 65.04 27.544 64.672 27.288C71.344 23.912 71.248 16.088 71.312 13.624ZM72.496 15.592C72.64 16.744 73.296 24.408 79.44 27.144C79.088 27.416 78.736 27.832 78.56 28.168C72.224 25.208 71.568 17.112 71.344 15.72L72.496 15.592ZM84.048 21.928V23.016H92.112V21.928H84.048ZM84.048 23.8V24.92H92.112V23.8H84.048ZM84.048 20.056V21.144H92.112V20.056H84.048ZM82.88 19.256H93.312V25.72H82.88V19.256ZM89.52 26.472L90.32 25.8C92.064 26.328 93.936 27.032 95.072 27.544L94 28.232C92.976 27.72 91.248 27.032 89.52 26.472ZM85.568 25.816L86.656 26.328C85.36 27.096 83.328 27.832 81.728 28.264C81.536 28.04 81.12 27.576 80.848 27.368C82.496 27.016 84.416 26.456 85.568 25.816ZM87.408 14.648H94V15.592H87.408V14.648ZM87.664 13.528L88.736 13.768C88.304 15.08 87.536 16.376 86.704 17.192C86.512 17.016 86.064 16.728 85.792 16.584C86.624 15.816 87.296 14.68 87.664 13.528ZM89.568 15.24H90.672V15.784C90.672 17 90.16 18.44 85.648 19.144C85.536 18.856 85.216 18.44 85.008 18.216C89.168 17.672 89.568 16.568 89.568 15.752V15.24ZM90.512 16.184C91.328 17.224 93.152 17.896 95.376 18.088C95.136 18.328 94.832 18.76 94.688 19.064C92.384 18.728 90.544 17.816 89.664 16.392L90.512 16.184ZM81.12 14.52H84.976V15.464H81.12V14.52ZM80.768 17.016H85.376V17.992H80.768V17.016ZM93.6 14.648H93.808L93.984 14.6L94.8 14.872C94.4 15.688 93.888 16.616 93.44 17.192L92.496 16.856C92.864 16.328 93.312 15.512 93.6 14.824V14.648ZM99.328 13.576H100.448V28.28H99.328V13.576ZM96.752 18.936H103.072V20.072H96.752V18.936ZM96.864 14.824L97.744 14.6C98.208 15.72 98.576 17.176 98.688 18.152L97.728 18.376C97.664 17.432 97.28 15.944 96.864 14.824ZM102.032 14.536L103.088 14.808C102.672 16.008 102.176 17.512 101.744 18.408L100.96 18.168C101.328 17.208 101.808 15.624 102.032 14.536ZM108.24 13.576H109.376V28.28H108.24V13.576ZM103.04 23.752L111.264 22.28L111.456 23.384L103.232 24.872L103.04 23.752ZM104.24 15.528L104.864 14.712C105.792 15.256 106.896 16.072 107.424 16.664L106.784 17.592C106.272 16.968 105.168 16.104 104.24 15.528ZM103.424 19.56L103.984 18.712C104.944 19.208 106.128 19.96 106.704 20.536L106.096 21.48C105.536 20.904 104.384 20.088 103.424 19.56ZM98.128 21L99.008 21.288C98.672 23.08 97.984 25.352 97.152 26.488C97.024 26.088 96.752 25.512 96.528 25.16C97.184 24.216 97.872 22.44 98.128 21ZM101.184 21.016C101.488 21.496 102.64 23.688 102.896 24.216L102.016 25.128C101.744 24.248 100.864 22.2 100.512 21.496L101.184 21.016Z" fill="#FF6600"/>
<rect x="0.5" y="0.5" width="127" height="39" rx="19.5" stroke="#FF6600"/>
</svg>
