<svg width="64" height="40" viewBox="0 0 64 40" fill="none" xmlns="http://www.w3.org/2000/svg">
<rect x="0.5" y="0.5" width="63" height="39" rx="19.5" fill="white"/>
<path d="M18.416 15.304V18.12H21.504V15.304H18.416ZM17.36 14.264H22.608V19.144H17.36V14.264ZM19.648 18.68H20.72V25.992H19.648V18.68ZM17.376 20.68H18.384V26.472H17.376V20.68ZM16.544 26.408C18.096 26.072 20.464 25.464 22.752 24.872L22.88 25.928C20.736 26.504 18.48 27.112 16.832 27.56L16.544 26.408ZM20.016 21.384H22.688V22.456H20.016V21.384ZM24.032 14.28H30.352V21.32H24.032V20.264H29.248V15.336H24.032V14.28ZM24.048 17.272H29.744V18.28H24.048V17.272ZM26.912 20.68C27.584 23.688 29.056 26.088 31.488 27.128C31.216 27.368 30.864 27.832 30.688 28.168C28.16 26.904 26.704 24.264 25.968 20.872L26.912 20.68ZM30.48 21.832L31.248 22.664C30.304 23.432 29.04 24.264 28.096 24.792L27.456 24.024C28.384 23.48 29.728 22.536 30.48 21.832ZM23.328 28.296L23.232 27.224L23.808 26.776L27.376 25.912C27.376 26.248 27.392 26.744 27.44 27C24.128 27.912 23.632 28.088 23.328 28.296ZM23.328 28.296C23.232 28.024 22.96 27.544 22.784 27.304C23.04 27.16 23.376 26.824 23.376 26.168V14.28H24.528V27.128C24.528 27.128 23.328 27.864 23.328 28.296ZM40.016 14.68H47.248V15.544H40.016V14.68ZM42.336 16.472H46.672V17.24H42.336V16.472ZM41.136 18.488H47.136V19.256H41.136V18.488ZM43.696 17.048H44.752V18.888H43.696V17.048ZM42.64 13.528L43.584 13.688C43.056 15.8 42.048 17.576 40.64 18.712C40.512 18.536 40.176 18.152 39.968 17.976C41.28 16.984 42.192 15.4 42.64 13.528ZM45.488 20.008H46.432V25.368C46.432 25.832 46.336 26.072 46 26.216C45.664 26.36 45.12 26.36 44.256 26.36C44.208 26.12 44.08 25.8 43.968 25.56C44.56 25.576 45.104 25.576 45.28 25.576C45.44 25.576 45.488 25.528 45.488 25.368V20.008ZM41.696 20.008H45.936V20.776H41.696V20.008ZM41.264 20.008H42.192V22.312C42.192 23.544 42.032 25.192 41.168 26.312C41.008 26.152 40.592 25.88 40.384 25.784C41.168 24.744 41.264 23.368 41.264 22.28V20.008ZM42.16 23.944C43.12 23.72 44.448 23.352 45.824 22.984L45.92 23.704C44.704 24.136 43.552 24.536 42.544 24.856L42.16 23.944ZM42.528 21.752L42.992 21.128C43.76 21.48 44.656 21.928 45.12 22.28L44.656 23.016C44.176 22.648 43.264 22.088 42.528 21.752ZM33.232 14.216H36.768V15.304H34.224V28.248H33.232V14.216ZM36.416 14.216H36.592L36.768 14.168L37.456 14.584C37.04 15.88 36.496 17.464 36 18.776C37.072 20.136 37.312 21.288 37.312 22.296C37.312 23.128 37.152 23.8 36.736 24.12C36.528 24.28 36.288 24.376 35.984 24.392C35.68 24.424 35.328 24.44 34.992 24.424C34.976 24.152 34.896 23.752 34.736 23.464C35.072 23.512 35.36 23.512 35.584 23.496C35.76 23.48 35.92 23.432 36.064 23.352C36.272 23.16 36.368 22.696 36.352 22.2C36.352 21.304 36.112 20.2 35.04 18.888C35.584 17.416 36.112 15.592 36.416 14.504V14.216ZM37.568 14.104L38.48 13.816C38.96 14.6 39.488 15.624 39.744 16.28L38.8 16.648C38.56 15.96 38 14.888 37.568 14.104ZM37.296 17.256H39.52V18.296H37.296V17.256ZM39.28 24.536C40.096 26.68 41.696 27.08 44.048 27.08C45.072 27.08 46.496 27.032 47.504 26.92C47.344 27.176 47.2 27.688 47.168 28.008C46.256 28.072 45.056 28.088 44.016 28.088C41.184 28.088 39.52 27.544 38.512 24.872L39.28 24.536ZM39.184 21.16H39.552L39.744 21.128L40.192 21.32C39.744 24.76 38.576 27.064 36.976 28.312C36.816 28.072 36.48 27.688 36.256 27.512C37.776 26.408 38.8 24.312 39.184 21.352V21.16ZM37.696 22.408V21.432L38.272 21.16H39.648V22.168H38.544C38.224 22.168 37.824 22.28 37.696 22.408ZM37.696 22.408C37.632 22.136 37.408 21.64 37.28 21.4C37.504 21.336 37.728 21.256 37.888 20.936C38.144 20.52 38.96 18.152 39.232 17.336V17.288L39.536 17.144L40.272 17.368C39.856 18.408 39.056 20.68 38.512 21.672C38.512 21.672 37.696 22.104 37.696 22.408Z" fill="#FF6600"/>
<rect x="0.5" y="0.5" width="63" height="39" rx="19.5" stroke="#FF6600"/>
</svg>
