<svg width="16" height="16" viewBox="0 0 16 16" fill="none" xmlns="http://www.w3.org/2000/svg">
<path d="M8.00005 14.4253H7.99072C6.26872 14.3933 1.30005 9.90392 1.30005 5.65192C1.30005 3.60925 2.98338 1.81592 4.90205 1.81592C6.42872 1.81592 7.45538 2.86925 7.99938 3.63592C8.54205 2.87058 9.56871 1.81592 11.096 1.81592C13.016 1.81592 14.6987 3.60925 14.6987 5.65258C14.6987 9.90325 9.72938 14.3926 8.00738 14.4239H8.00005V14.4253ZM4.90272 2.81658C3.51605 2.81658 2.30072 4.14192 2.30072 5.65325C2.30072 9.47992 6.99005 13.3839 8.00072 13.4253C9.01272 13.3839 13.7007 9.48058 13.7007 5.65325C13.7007 4.14192 12.4854 2.81658 11.0987 2.81658C9.41338 2.81658 8.47205 4.77392 8.46405 4.79325C8.31072 5.16792 7.69338 5.16792 7.53938 4.79325C7.53005 4.77325 6.58938 2.81658 4.90338 2.81658H4.90272Z" fill="#6C757D"/>
</svg>
