<svg width="76" height="26" viewBox="0 0 76 26" fill="none" xmlns="http://www.w3.org/2000/svg">
  <g clip-path="url(#clip0_66277_556)">
    <path
      d="M6 4C5.20435 4 4.44129 4.31607 3.87868 4.87868C3.31607 5.44129 3 6.20435 3 7V19C3 19.7956 3.31607 20.5587 3.87868 21.1213C4.44129 21.6839 5.20435 22 6 22H11C11.2652 22 11.5196 21.8946 11.7071 21.7071C11.8946 21.5196 12 21.2652 12 21C12 20.7348 11.8946 20.4804 11.7071 20.2929C11.5196 20.1054 11.2652 20 11 20H6C5.73478 20 5.48043 19.8946 5.29289 19.7071C5.10536 19.5196 5 19.2652 5 19V7C5 6.73478 5.10536 6.48043 5.29289 6.29289C5.48043 6.10536 5.73478 6 6 6H11C11.2652 6 11.5196 5.89464 11.7071 5.70711C11.8946 5.51957 12 5.26522 12 5C12 4.73478 11.8946 4.48043 11.7071 4.29289C11.5196 4.10536 11.2652 4 11 4H6Z"
      fill="#44444F" />
    <path
      d="M15.293 8.293C15.4805 8.10553 15.7348 8.00021 16 8.00021C16.2652 8.00021 16.5195 8.10553 16.707 8.293L20.707 12.293C20.8945 12.4805 20.9998 12.7348 20.9998 13C20.9998 13.2652 20.8945 13.5195 20.707 13.707L16.707 17.707C16.5184 17.8892 16.2658 17.99 16.0036 17.9877C15.7414 17.9854 15.4906 17.8802 15.3052 17.6948C15.1198 17.5094 15.0146 17.2586 15.0123 16.9964C15.01 16.7342 15.1108 16.4816 15.293 16.293L17.586 14H10C9.73478 14 9.48043 13.8946 9.29289 13.7071C9.10536 13.5196 9 13.2652 9 13C9 12.7348 9.10536 12.4804 9.29289 12.2929C9.48043 12.1054 9.73478 12 10 12H17.586L15.293 9.707C15.1055 9.51947 15.0002 9.26516 15.0002 9C15.0002 8.73484 15.1055 8.48053 15.293 8.293Z"
      fill="#44444F" />
    <path
      d="M45.94 10.524V12.324H52.222V10.524H45.94ZM41.044 20.424V22.242H56.974V20.424H41.044ZM41.692 6.384V8.13H47.29V6.384H41.692ZM46.66 6.384V6.762C45.67 9.462 42.988 12 40.306 13.152C40.738 13.548 41.332 14.286 41.62 14.772C44.68 13.26 47.542 10.614 48.856 6.996L47.416 6.294L47.038 6.384H46.66ZM50.764 5.772L48.856 6.366C50.368 10.056 52.87 13.062 56.29 14.646C56.632 14.07 57.28 13.224 57.766 12.81C54.544 11.532 52.024 8.832 50.764 5.772ZM41.458 9.696C42.25 10.218 43.222 10.974 43.672 11.514L44.878 10.2C44.41 9.66 43.42 8.958 42.628 8.508L41.458 9.696ZM53.536 5.88C52.852 6.672 51.664 7.716 50.8 8.328L52.096 9.336C52.996 8.76 54.166 7.878 55.156 7.032L53.536 5.88ZM55.57 7.986C54.832 8.814 53.572 9.876 52.636 10.524L53.932 11.532C54.886 10.938 56.128 10.002 57.154 9.102L55.57 7.986ZM45.706 15.078H52.024V16.626H45.706V15.078ZM43.528 13.35V18.336H54.346V13.35H43.528ZM44.734 18.804C45.112 19.416 45.472 20.28 45.58 20.82L47.614 20.118C47.47 19.578 47.092 18.768 46.678 18.192L44.734 18.804ZM51.178 18.282C50.962 19.002 50.494 20.01 50.116 20.658L52.006 21.09C52.384 20.496 52.816 19.632 53.284 18.732L51.178 18.282ZM65.722 5.736V20.586H68.134V5.736H65.722ZM71.95 14.754V22.602H74.362V14.754H71.95ZM60.466 7.248V13.818H73.642V7.23H71.248V11.712H62.752V7.248H60.466ZM59.512 14.772V21.63H73.066V19.47H61.942V14.772H59.512Z"
      fill="#44444F" />
  </g>
  <defs>
    <clipPath id="clip0_66277_556">
      <rect width="76" height="26" fill="white" />
    </clipPath>
  </defs>
</svg>