<svg width="76" height="26" viewBox="0 0 76 26" fill="none" xmlns="http://www.w3.org/2000/svg">
<g clip-path="url(#clip0_65939_5459)">
<path d="M6 4C5.20435 4 4.44129 4.31607 3.87868 4.87868C3.31607 5.44129 3 6.20435 3 7V19C3 19.7956 3.31607 20.5587 3.87868 21.1213C4.44129 21.6839 5.20435 22 6 22H11C11.2652 22 11.5196 21.8946 11.7071 21.7071C11.8946 21.5196 12 21.2652 12 21C12 20.7348 11.8946 20.4804 11.7071 20.2929C11.5196 20.1054 11.2652 20 11 20H6C5.73478 20 5.48043 19.8946 5.29289 19.7071C5.10536 19.5196 5 19.2652 5 19V7C5 6.73478 5.10536 6.48043 5.29289 6.29289C5.48043 6.10536 5.73478 6 6 6H11C11.2652 6 11.5196 5.89464 11.7071 5.70711C11.8946 5.51957 12 5.26522 12 5C12 4.73478 11.8946 4.48043 11.7071 4.29289C11.5196 4.10536 11.2652 4 11 4H6Z" fill="#FF6600"/>
<path d="M15.293 8.293C15.4805 8.10553 15.7348 8.00021 16 8.00021C16.2652 8.00021 16.5195 8.10553 16.707 8.293L20.707 12.293C20.8945 12.4805 20.9998 12.7348 20.9998 13C20.9998 13.2652 20.8945 13.5195 20.707 13.707L16.707 17.707C16.5184 17.8892 16.2658 17.99 16.0036 17.9877C15.7414 17.9854 15.4906 17.8802 15.3052 17.6948C15.1198 17.5094 15.0146 17.2586 15.0123 16.9964C15.01 16.7342 15.1108 16.4816 15.293 16.293L17.586 14H10C9.73478 14 9.48043 13.8946 9.29289 13.7071C9.10536 13.5196 9 13.2652 9 13C9 12.7348 9.10536 12.4804 9.29289 12.2929C9.48043 12.1054 9.73478 12 10 12H17.586L15.293 9.707C15.1055 9.51947 15.0002 9.26516 15.0002 9C15.0002 8.73484 15.1055 8.48053 15.293 8.293Z" fill="#FF6600"/>
<path d="M45.94 10.524H52.222V12.324H45.94V10.524ZM41.044 20.424H56.974V22.242H41.044V20.424ZM41.692 6.384H47.29V8.13H41.692V6.384ZM46.66 6.384H47.038L47.416 6.294L48.856 6.996C47.542 10.614 44.68 13.26 41.62 14.772C41.332 14.286 40.738 13.548 40.306 13.152C42.988 12 45.67 9.462 46.66 6.762V6.384ZM50.764 5.772C52.024 8.832 54.544 11.532 57.766 12.81C57.28 13.224 56.632 14.07 56.29 14.646C52.87 13.062 50.368 10.056 48.856 6.366L50.764 5.772ZM41.458 9.696L42.628 8.508C43.42 8.958 44.41 9.66 44.878 10.2L43.672 11.514C43.222 10.974 42.25 10.218 41.458 9.696ZM53.536 5.88L55.156 7.032C54.166 7.878 52.996 8.76 52.096 9.336L50.8 8.328C51.664 7.716 52.852 6.672 53.536 5.88ZM55.57 7.986L57.154 9.102C56.128 10.002 54.886 10.938 53.932 11.532L52.636 10.524C53.572 9.876 54.832 8.814 55.57 7.986ZM45.706 15.078V16.626H52.024V15.078H45.706ZM43.528 13.35H54.346V18.336H43.528V13.35ZM44.734 18.804L46.678 18.192C47.092 18.768 47.47 19.578 47.614 20.118L45.58 20.82C45.472 20.28 45.112 19.416 44.734 18.804ZM51.178 18.282L53.284 18.732C52.816 19.632 52.384 20.496 52.006 21.09L50.116 20.658C50.494 20.01 50.962 19.002 51.178 18.282ZM65.722 5.736H68.134V20.586H65.722V5.736ZM71.95 14.754H74.362V22.602H71.95V14.754ZM60.466 7.248H62.752V11.712H71.248V7.23H73.642V13.818H60.466V7.248ZM59.512 14.772H61.942V19.47H73.066V21.63H59.512V14.772Z" fill="#FF6600"/>
</g>
<defs>
<clipPath id="clip0_65939_5459">
<rect width="76" height="26" fill="white"/>
</clipPath>
</defs>
</svg>
