<svg width="112" height="26" viewBox="0 0 112 26" fill="none" xmlns="http://www.w3.org/2000/svg">
  <g clip-path="url(#clip0_66277_495)">
    <path
      d="M12 12.816C13.355 12.816 14.872 12.666 15.84 11.56C16.654 10.63 16.918 9.19201 16.646 7.16801C16.266 4.34301 14.529 2.65601 12 2.65601C9.47103 2.65601 7.73403 4.34301 7.35403 7.17001C7.08203 9.19201 7.34603 10.63 8.16003 11.56C9.12803 12.667 10.645 12.816 12 12.816ZM8.84003 7.36801C9.00203 6.16801 9.62703 4.15601 12 4.15601C14.373 4.15601 14.998 6.16901 15.16 7.36801C15.367 8.91801 15.217 9.99501 14.71 10.573C14.255 11.093 13.444 11.316 12 11.316C10.556 11.316 9.74503 11.093 9.29003 10.573C8.78303 9.99501 8.63303 8.91701 8.84003 7.36801ZM20.28 20.236C19.403 16.71 15.998 14.246 12 14.246C8.00203 14.246 4.59703 16.71 3.72003 20.236C3.54803 20.928 3.69203 21.636 4.11503 22.176C4.52303 22.696 5.15503 22.996 5.84803 22.996H18.152C18.845 22.996 19.477 22.696 19.885 22.176C20.309 21.636 20.452 20.929 20.279 20.236H20.28ZM18.704 21.252C18.578 21.412 18.388 21.498 18.152 21.498H5.84803C5.61303 21.498 5.42203 21.413 5.29603 21.252C5.15903 21.078 5.11603 20.84 5.17603 20.598C5.88603 17.743 8.69303 15.748 12 15.748C15.307 15.748 18.114 17.742 18.824 20.598C18.884 20.84 18.841 21.078 18.704 21.252Z"
      fill="#44444F" />
    <path
      d="M46.102 6.636V22.602H48.064V8.508H54.868V22.458H56.92V6.636H46.102ZM48.532 10.722V12.288H54.454V10.722H48.532ZM47.11 19.668V21.558H55.858V19.668H47.11ZM50.602 8.886V14.664H52.276V8.886H50.602ZM50.548 15.348H52.384V17.22H50.548V15.348ZM49 13.854V18.714H54.022V13.854H49ZM43.87 5.772C43.06 8.346 41.674 10.938 40.162 12.594C40.504 13.152 41.044 14.412 41.206 14.934C43.078 12.81 44.806 9.48 45.85 6.366L43.87 5.772ZM42.394 10.704V22.638H44.446V8.688L44.428 8.67L42.394 10.704ZM65.578 5.736C65.488 8.814 65.83 16.896 58.504 20.838C59.206 21.324 59.908 22.008 60.304 22.584C67.828 18.156 67.936 9.462 68.044 5.736H65.578ZM67.846 7.932L65.758 8.166C66.028 9.966 66.622 18.966 74.002 22.476C74.326 21.864 74.938 21.126 75.586 20.622C68.566 17.49 67.99 9.39 67.846 7.932ZM81.166 15.51H88.996V16.284H81.166V15.51ZM81.166 17.508H88.996V18.3H81.166V17.508ZM81.166 13.53H88.996V14.286H81.166V13.53ZM79.078 12.234V19.578H91.174V12.234H79.078ZM86.422 20.46C88.204 21.126 90.058 22.008 91.102 22.602L93.028 21.45C91.804 20.838 89.698 19.974 87.844 19.326L86.422 20.46ZM82.012 19.398C80.788 20.1 78.646 20.73 76.738 21.072C77.224 21.45 77.962 22.242 78.34 22.656C80.176 22.152 82.516 21.252 83.992 20.298L82.012 19.398ZM84.1 6.816V8.382H91.39V6.816H84.1ZM84.244 5.61C83.848 6.834 83.092 8.04 82.138 8.832C82.588 9.084 83.38 9.606 83.74 9.912C84.712 9.012 85.63 7.536 86.134 6.042L84.244 5.61ZM86.08 8.022V8.652C86.08 9.372 85.54 10.254 81.112 10.596C81.49 10.992 82.03 11.73 82.228 12.216C87.322 11.64 88.042 10.056 88.042 8.742V8.022H86.08ZM87.862 8.742L86.35 9.048C87.43 10.866 89.392 11.856 92.2 12.198C92.434 11.658 92.956 10.884 93.37 10.47C90.778 10.344 88.798 9.822 87.862 8.742ZM77.116 6.6V8.184H81.742V6.6H77.116ZM76.72 9.39V11.028H82.174V9.39H76.72ZM90.634 6.816V7.068C90.346 7.842 89.842 8.796 89.428 9.408L91.084 10.038C91.66 9.318 92.29 8.184 92.74 7.176L91.264 6.726L90.958 6.816H90.634ZM97.402 5.718V22.62H99.4V5.718H97.402ZM94.684 11.712V13.728H102.064V11.712H94.684ZM94.648 7.212C95.08 8.526 95.44 10.29 95.476 11.406L97.096 11.01C97.024 9.858 96.646 8.148 96.16 6.834L94.648 7.212ZM100.588 6.744C100.39 8.004 99.958 9.822 99.58 10.956L100.948 11.334C101.398 10.272 101.938 8.562 102.406 7.122L100.588 6.744ZM107.392 5.7V22.602H109.426V5.7H107.392ZM102.01 16.968L102.352 18.984L111.586 17.31L111.262 15.312L102.01 16.968ZM103.036 8.166C104.044 8.814 105.304 9.804 105.844 10.506L106.978 8.868C106.384 8.202 105.106 7.302 104.098 6.69L103.036 8.166ZM102.226 12.702C103.27 13.314 104.584 14.286 105.196 14.952L106.276 13.242C105.628 12.576 104.278 11.712 103.234 11.154L102.226 12.702ZM96.142 14.412C95.872 15.78 95.152 17.436 94.396 18.354C94.738 19.074 95.188 20.172 95.368 20.928C96.52 19.632 97.276 17.04 97.654 14.934L96.142 14.412ZM100.066 14.466L98.896 15.312C99.382 16.266 100.246 18.282 100.588 19.398L102.082 17.76C101.794 17.22 100.444 14.97 100.066 14.466Z"
      fill="#44444F" />
  </g>
  <defs>
    <clipPath id="clip0_66277_495">
      <rect width="112" height="26" fill="white" />
    </clipPath>
  </defs>
</svg>